<?xml version="1.0" encoding="utf-8"?>
<!-- Generator: Adobe Illustrator 26.5.0, SVG Export Plug-In . SVG Version: 6.00 Build 0)  -->
<svg version="1.1" id="Layer_1" xmlns="http://www.w3.org/2000/svg" xmlns:xlink="http://www.w3.org/1999/xlink" x="0px" y="0px"
	 viewBox="0 0 94 120" style="enable-background:new 0 0 94 120;" xml:space="preserve">
<style type="text/css">
	.st0{fill:#FFFFFF;}
	.st1{fill:none;}
	.st2{opacity:0.6;clip-path:url(#SVGID_00000042006692524283519000000001348789154163471776_);}
</style>
<path class="st0" d="M94,44.5H44.5C19.9,44.5,0,24.6,0,0v0l49.5,0C74.1,0,94,19.9,94,44.5L94,44.5z"/>
<path class="st0" d="M0,92.2h49.5C74.1,92.2,94,72.3,94,47.7v0H44.5C19.9,47.7,0,67.6,0,92.2L0,92.2z"/>
<path class="st1" d="M0,92.2h49.5C74.1,92.2,94,72.3,94,47.7v0H44.5C19.9,47.7,0,67.6,0,92.2L0,92.2z"/>
<g>
	<defs>
		<path id="SVGID_1_" d="M0,92.2h49.5C74.1,92.2,94,72.3,94,47.7v0H44.5C19.9,47.7,0,67.6,0,92.2L0,92.2z"/>
	</defs>
	<clipPath id="SVGID_00000125566680807429718450000009263405128080833726_">
		<use xlink:href="#SVGID_1_"  style="overflow:visible;"/>
	</clipPath>
	<g style="opacity:0.6;clip-path:url(#SVGID_00000125566680807429718450000009263405128080833726_);">
		
			<image style="overflow:visible;" width="685" height="781" xlink:href="B48F229B.png"  transform="matrix(0.24 0 0 0.24 -42.4578 -23.52)">
		</image>
	</g>
</g>
<path class="st0" d="M55,47.7H37.5h0C16.8,47.7,0,64.5,0,85.2V120h0c20.7,0,37.5-16.8,37.5-37.5V65.3C37.5,55.6,45.3,47.8,55,47.7
	C55,47.7,55.1,47.7,55,47.7L55,47.7z"/>
</svg>
